<?xml version="1.0" encoding="UTF-8" standalone="no"?>
<!-- Created with Inkscape (http://www.inkscape.org/) -->

<svg
   width="49.118755mm"
   height="61.960545mm"
   viewBox="0 0 49.118755 61.960545"
   version="1.1"
   id="svg1"
   inkscape:version="1.3.2 (091e20e, 2023-11-25, custom)"
   sodipodi:docname="pictogram-light-logo.svg"
   xmlns:inkscape="http://www.inkscape.org/namespaces/inkscape"
   xmlns:sodipodi="http://sodipodi.sourceforge.net/DTD/sodipodi-0.dtd"
   xmlns:xlink="http://www.w3.org/1999/xlink"
   xmlns="http://www.w3.org/2000/svg"
   xmlns:svg="http://www.w3.org/2000/svg">
  <sodipodi:namedview
     id="namedview1"
     pagecolor="#ffffff"
     bordercolor="#000000"
     borderopacity="0.25"
     inkscape:showpageshadow="2"
     inkscape:pageopacity="0.0"
     inkscape:pagecheckerboard="0"
     inkscape:deskcolor="#d1d1d1"
     inkscape:document-units="mm"
     inkscape:zoom="0.61647026"
     inkscape:cx="103.81685"
     inkscape:cy="176.81307"
     inkscape:window-width="1600"
     inkscape:window-height="930"
     inkscape:window-x="-6"
     inkscape:window-y="-6"
     inkscape:window-maximized="1"
     inkscape:current-layer="layer1" />
  <defs
     id="defs1">
    <radialGradient
       inkscape:collect="always"
       xlink:href="#linearGradient23"
       id="radialGradient24"
       cx="413.0546"
       cy="509.62305"
       fx="413.0546"
       fy="509.62305"
       r="42.677814"
       gradientTransform="matrix(0.26458333,0,0,0.51657281,-7.422125,-125.98883)"
       gradientUnits="userSpaceOnUse" />
    <linearGradient
       id="linearGradient23"
       inkscape:collect="always">
      <stop
         style="stop-color:#10b981;stop-opacity:1;"
         offset="0.84463274"
         id="stop23" />
      <stop
         style="stop-color:#2563eb;stop-opacity:1;"
         offset="1"
         id="stop24" />
    </linearGradient>
  </defs>
  <g
     inkscape:label="Livello 1"
     inkscape:groupmode="layer"
     id="layer1"
     transform="translate(-77.522917,-101.6)">
    <path
       id="path1"
       style="fill:url(#radialGradient24);fill-opacity:1;stroke-width:0.264583"
       d="m 102.01246,101.60179 c -0.21928,0.009 -0.44807,0.0513 -0.68575,0.12712 -0.31397,0.0988 -0.56143,0.26348 -0.74311,0.49455 -3.399005,4.30564 -8.22439,10.40144 -14.475598,18.28777 -2.177516,2.74637 -4.34969,5.4665 -5.823417,8.21552 -2.377716,4.4397 -3.220183,9.21175 -2.526978,14.31644 0.579437,4.28624 2.341919,8.16021 4.990393,11.44633 3.284354,4.07634 7.439866,6.79704 12.466939,8.16229 0.372181,0.10054 1.106864,0.27068 2.204,0.51056 0.806978,0.17727 1.378583,0.10571 2.156457,0.26975 0.294569,0.0617 0.837074,0.1004 1.627294,0.11628 2.41123,0.0476 4.19174,-0.0447 5.34179,-0.27751 1.66687,-0.34042 2.78972,-0.60583 3.36827,-0.79633 3.43252,-1.13241 6.48478,-2.9442 9.15706,-5.43481 3.89643,-3.63184 6.31307,-8.04568 7.24969,-13.24209 0.0988,-0.55033 0.15241,-1.00545 0.16123,-1.36529 0.0265,-1.16681 0.19846,-2.23064 0.15348,-3.45302 -0.14817,-4.2686 -1.43868,-8.25152 -3.87108,-11.94862 -0.80962,-1.23119 -2.02097,-2.87941 -3.63492,-4.94492 -0.68086,-0.86959 -1.06031,-1.35385 -1.13792,-1.45262 -3.83468,-4.88773 -7.78058,-9.95267 -11.83752,-15.19494 -1.01952,-1.31762 -1.82445,-2.32233 -2.41535,-3.01377 -0.49213,-0.57547 -1.06714,-0.84948 -1.72496,-0.82269 z m 0.13487,5.4007 a 0.10847917,0.111125 44.6 0 1 0.0868,0.0419 c 1.39347,1.75507 2.55959,3.29058 3.49798,4.60644 0.9697,1.36334 1.66387,2.5477 2.11098,3.57136 0.0457,0.10473 0.10287,0.21663 0.14314,0.31781 1.00806,2.54528 1.18306,5.26244 0.97669,8.07496 -0.0229,0.32808 -0.14405,0.95795 -0.36277,1.88929 -0.2152,0.9278 -0.38533,1.54978 -0.51057,1.86552 -1.14828,2.91746 -2.80358,5.33031 -4.9661,7.23883 -0.65793,0.57856 -2.96812,2.4127 -6.929809,5.50302 -0.20814,0.16228 -0.843756,0.82046 -1.907377,1.97404 -0.765526,0.82903 -1.327617,1.55038 -1.685686,2.16421 -0.950734,1.62454 -1.535997,3.04274 -1.756482,4.25452 -0.253999,1.39436 -0.378374,3.10115 -0.153478,4.73098 0.15875,1.16064 0.497375,2.31291 1.015958,3.45767 a 0.16139583,0.16139583 0 0 1 -0.176217,0.21497 0.16139583,0.16139583 0 0 1 -0.05116,-0.006 c -4.601094,-2.59821 -7.980106,-7.30758 -9.205123,-12.4008 -1.172984,-4.86832 -0.572231,-9.51486 1.801957,-13.93868 0.732014,-1.36525 1.604423,-2.69391 2.616895,-3.98684 0.742594,-0.95073 3.980778,-5.03272 9.715169,-12.24524 0.197553,-0.24871 0.375584,-0.47002 0.534334,-0.66405 1.379359,-1.68627 3.085009,-3.89278 5.116999,-6.61975 a 0.10847917,0.111125 44.6 0 1 0.0879,-0.0444 z m 11.00967,14.13764 a 0.0873125,0.0873125 0 0 1 0.031,0.009 c 2.32569,3.01359 4.52738,5.69915 6.37946,8.68629 0.65087,1.04951 1.24947,2.33049 1.79627,3.84214 0.46567,1.28411 0.76973,2.65984 0.9126,4.1274 0.52212,5.35692 -0.83239,10.11154 -4.06383,14.26373 -1.32115,1.69685 -2.99931,3.2174 -5.03483,4.56148 -3.55247,2.3442 -7.48176,3.33423 -11.7874,2.97087 -0.53728,-0.0455 -1.05355,-0.15277 -1.558559,-0.29455 -0.766629,-0.21524 -1.500884,-0.52775 -2.193147,-0.9648 -1.125359,-0.70908 -1.943621,-1.71245 -2.455147,-3.01067 -0.781402,-1.97555 -0.941178,-3.8739 -0.479041,-5.69423 0.276931,-1.09361 0.776155,-2.23306 1.497583,-3.41839 0.388937,-0.64294 0.941731,-1.17971 1.529106,-1.84382 0.211666,-0.23989 0.437591,-0.46335 0.677478,-0.66972 1.407582,-1.20826 3.181007,-2.62728 5.320607,-4.25711 3.03476,-2.3151 5.74408,-5.31257 7.38714,-8.78654 1.41288,-2.98802 2.05147,-6.14017 1.91565,-9.45627 a 0.0873125,0.0873125 0 0 1 0.12506,-0.0646 z" />
  </g>
</svg>
